# xmcd
#
# Track frame offsets:
#	150
#	10081
#	23291
#	37794
#	52100
#	70850
#	85643
#	100448
#	119747
#	134839
#	147147
#	164853
#	180261
#	193710
#
# Disc length: 2864 seconds
#
# Revision: 1
# Processed by: cddbd v1.5.2PL0 Copyright (c) Steve Scherf et al.
# Submitted via: audiograbber 1.83.01
#
DISCID=bd0b2e0e
DTITLE=Julie Ingram - It Is Time
DYEAR=1900
DGENRE=
TTITLE0=Joy To The World
TTITLE1=Christmas Kickoff
TTITLE2=Away In A Manger
TTITLE3=Door Bell Party
TTITLE4=The Little White Cloud That Cried
TTITLE5=To Think
TTITLE6=My Little Angels
TTITLE7=Silent Night
TTITLE8=Best Christmas Yet
TTITLE9=Down By The Riverside
TTITLE10=One Chance
TTITLE11=Feliz Navadad
TTITLE12=My Brother
TTITLE13=Miracles Do Happen
EXTD=
EXTT0=
EXTT1=
EXTT2=
EXTT3=
EXTT4=
EXTT5=
EXTT6=
EXTT7=
EXTT8=
EXTT9=
EXTT10=
EXTT11=
EXTT12=
EXTT13=
PLAYORDER=
